<!--?xml version="1.0" standalone="no"?-->
              <svg id="sw-js-blob-svg" viewBox="0 0 100 100" xmlns="http://www.w3.org/2000/svg" version="1.1">
                    <defs> 
                        <linearGradient id="sw-gradient" x1="0" x2="1" y1="1" y2="0">
                            <stop id="stop1" stop-color="rgba(105.886, 223.58, 19.631, 1)" offset="0%"></stop>
                            <stop id="stop2" stop-color="rgba(181.536, 239.518, 171.152, 1)" offset="100%"></stop>
                        </linearGradient>
                    </defs>
                <path fill="none" d="M19.2,-33.1C24.6,-30.2,28.6,-24.5,30.7,-18.5C32.8,-12.5,33.1,-6.3,33,0C32.9,6.2,32.5,12.3,30.2,18C28,23.8,23.9,29,18.5,33.5C13.2,38,6.6,41.8,0.1,41.6C-6.3,41.4,-12.7,37.1,-19.2,33.3C-25.6,29.4,-32.3,25.9,-36.7,20.5C-41.2,15,-43.4,7.5,-42.4,0.6C-41.4,-6.3,-37.2,-12.7,-33.3,-19.2C-29.4,-25.7,-26,-32.4,-20.5,-35.3C-15.1,-38.3,-7.5,-37.5,-0.3,-36.9C6.9,-36.4,13.8,-36.1,19.2,-33.1Z" width="100%" height="100%" transform="translate(50 50)" style="transition: all 0.3s ease 0s;" stroke-width="1" stroke="url(#sw-gradient)"></path>
              </svg>