<!--?xml version="1.0" standalone="no"?-->
              <svg id="sw-js-blob-svg" viewBox="0 0 100 100" xmlns="http://www.w3.org/2000/svg" version="1.1">
                    <defs> 
                        <linearGradient id="sw-gradient" x1="0" x2="1" y1="1" y2="0">
                            <stop id="stop1" stop-color="rgba(105.886, 223.58, 19.631, 1)" offset="0%"></stop>
                            <stop id="stop2" stop-color="rgba(181.536, 239.518, 171.152, 1)" offset="100%"></stop>
                        </linearGradient>
                    </defs>
                <path fill="none" d="M22,-38.1C28.2,-34.5,32.8,-28,35.3,-21.2C37.8,-14.4,38.2,-7.2,37.9,-0.2C37.6,6.8,36.6,13.7,33.8,20.1C31,26.4,26.6,32.4,20.7,36.3C14.7,40.1,7.4,42,-0.2,42.2C-7.7,42.5,-15.4,41.2,-22.4,38C-29.5,34.8,-35.9,29.6,-39.8,22.9C-43.6,16.3,-44.9,8.1,-45,-0.1C-45.1,-8.2,-44,-16.5,-39.9,-22.7C-35.8,-29,-28.7,-33.2,-21.6,-36.3C-14.4,-39.4,-7.2,-41.4,0.3,-42C7.9,-42.6,15.8,-41.8,22,-38.1Z" width="100%" height="100%" transform="translate(50 50)" style="transition: all 0.3s ease 0s;" stroke-width="1" stroke="url(#sw-gradient)"></path>
              </svg>