<!--?xml version="1.0" standalone="no"?-->
              <svg id="sw-js-blob-svg" viewBox="0 0 100 100" xmlns="http://www.w3.org/2000/svg" version="1.1">
                    <defs> 
                        <linearGradient id="sw-gradient" x1="0" x2="1" y1="1" y2="0">
                            <stop id="stop1" stop-color="rgba(105.886, 223.58, 19.631, 1)" offset="0%"></stop>
                            <stop id="stop2" stop-color="rgba(181.536, 239.518, 171.152, 1)" offset="100%"></stop>
                        </linearGradient>
                    </defs>
                <path fill="none" d="M20.9,-35.2C28,-32,35.5,-28.4,39.4,-22.5C43.3,-16.5,43.6,-8.3,42.7,-0.5C41.8,7.2,39.6,14.4,35.5,20C31.4,25.6,25.4,29.7,19.2,32.9C13,36.2,6.5,38.7,-0.1,39C-6.8,39.2,-13.5,37.1,-20.3,34.2C-27.2,31.3,-34.1,27.5,-38.4,21.6C-42.7,15.8,-44.4,7.9,-44.4,0C-44.5,-8,-43,-15.9,-38.6,-21.7C-34.2,-27.4,-27,-30.8,-20.1,-34.1C-13.2,-37.3,-6.6,-40.4,0.1,-40.6C6.9,-40.9,13.7,-38.3,20.9,-35.2Z" width="100%" height="100%" transform="translate(50 50)" style="transition: all 0.3s ease 0s;" stroke-width="1" stroke="url(#sw-gradient)"></path>
              </svg>