<svg xmlns="http://www.w3.org/2000/svg" version="1.1" xmlns:xlink="http://www.w3.org/1999/xlink" xmlns:svgjs="http://svgjs.dev/svgjs" width="1440" height="560" preserveAspectRatio="none" viewBox="0 0 1440 560"><g mask="url(&quot;#SvgjsMask1003&quot;)" fill="none"><rect width="1440" height="560" x="0" y="0" fill="black"></rect><path d="M94.29 0C132.8 42.29 110.14 70.2 127.5 140C132.99 162.07 133.21 183.75 140 183.75C146.9 183.75 148.59 162.22 154.89 140C174.64 70.35 153.16 43.56 192.09 0C215.72 -26.44 236.05 0 280 0C350 0 350 0 420 0C490 0 490 0 560 0C630 0 630 0 700 0C770 0 770 0 840 0C910 0 910 0 980 0C1050 0 1050 0 1120 0C1190 0 1190 0 1260 0C1330 0 1330 0 1400 0C1470 0 1505 -35 1540 0C1575 35 1540 70 1540 140C1540 210 1540 210 1540 280C1540 350 1540 350 1540 420C1540 490 1575 525 1540 560C1505 595 1470 560 1400 560C1347.95 560 1344.82 569.41 1295.9 560C1274.82 555.95 1275.76 548.95 1260 533.08C1206.23 478.95 1208.69 476.29 1156.84 420C1138.69 400.3 1136.82 381.11 1120 381.11C1105.27 381.11 1102.84 398.52 1093.75 420C1065 487.97 1084 511.16 1044.32 560C1027.13 581.16 1012.16 560 980 560C910 560 910 560 840 560C795.74 560 791.67 571.69 751.47 560C721.67 551.34 724.38 519.3 700 519.3C678.98 519.3 685.86 552.68 660.67 560C615.86 573.03 610.34 560 560 560C490 560 490 560 420 560C350 560 350 560 280 560C210 560 210 560 140 560C70 560 40.93 589.07 0 560C-29.07 539.36 -10.37 506.74 0 460.58C5.36 436.74 31.46 439.08 31.46 420C31.46 403.9 4.44 409.96 0 390.21C-11.29 339.96 0 335.11 0 280C0 210 0 210 0 140C0 70 -28.17 41.83 0 0C18.97 -28.17 69.05 -27.71 94.29 0" stroke="rgba(254, 255, 254, 1)" stroke-width="2"></path><path d="M1400 10.77C1354.76 10.77 1301.18 79.37 1301.18 140C1301.18 190.65 1353.84 233.33 1400 233.33C1440.59 233.33 1474.67 189.49 1474.67 140C1474.67 78.21 1441.5 10.77 1400 10.77" stroke="rgba(254, 255, 254, 1)" stroke-width="2"></path><path d="M420 370.32C387.52 370.32 344.88 395.94 344.88 420C344.88 443.43 387.05 465.29 420 465.29C441 465.29 452.77 443 452.77 420C452.77 395.51 441.46 370.32 420 370.32" stroke="rgba(254, 255, 254, 1)" stroke-width="2"></path><path d="M22.86 0C50.97 60.53 43.53 70.12 65 140C86.55 210.12 80.33 213.82 108.89 280C117.83 300.72 124.31 313.79 140 313.79C155.93 313.79 161.6 300.48 172.13 280C206.28 213.58 203.64 211.05 229.36 140C254.32 71.05 249.25 67.03 273.49 0C274.57 -2.97 276.75 0 280 0C350 0 350 0 420 0C490 0 490 0 560 0C630 0 630 0 700 0C770 0 770 0 840 0C910 0 910 0 980 0C1050 0 1050 0 1120 0C1144.14 0 1156.02 -17.1 1168.28 0C1206.21 52.9 1187.21 74.48 1220.38 140C1233.07 165.07 1239.62 161.16 1260 181.18C1310.86 231.16 1310.47 231.67 1362.86 280C1380.47 296.25 1381.86 310.33 1400 310.33C1416.98 310.33 1418.24 296.78 1433.09 280C1488.24 217.7 1509.75 152.17 1540 152.17C1563.2 152.17 1540 216.08 1540 280C1540 333.46 1550.68 337.61 1540 386.91C1535.52 407.61 1509.67 401.83 1509.67 420C1509.67 444.37 1533.84 443.57 1540 472C1549 513.57 1567.02 543.02 1540 560C1497.02 587.02 1470 560 1400 560C1392.82 560 1391.5 563.95 1385.64 560C1321.5 516.83 1320.02 515.97 1260 465.77C1236.32 445.97 1239.42 442.61 1218.25 420C1169.42 367.87 1164.85 316.3 1120 316.3C1080.72 316.3 1083.53 367.22 1050 420C1013.53 477.4 1021.57 485.2 980 536.67C965.03 555.2 960.42 556.08 936.92 560C890.42 567.75 888.46 560 840 560C821.47 560 818.35 568.96 802.94 560C748.35 528.26 748.75 478.6 700 478.6C657.95 478.6 666.75 533.61 621.35 560C596.75 574.31 590.67 560 560 560C490 560 490 560 420 560C350 560 350 560 280 560C210 560 210 560 140 560C70 560 51.93 578.07 0 560C-18.07 553.72 -10.5 532.06 0 511.3C24.9 462.06 70.79 462.93 70.79 420C70.79 383.77 20.24 393.01 0 352.98C-15.15 323.01 0 316.49 0 280C0 210 0 210 0 140C0 70 -9.83 60.17 0 0C1.6 -9.83 18.47 -9.47 22.86 0" stroke="rgba(254, 255, 254, 1)" stroke-width="2"></path><path d="M560 83.51C509.53 83.51 452.67 104.07 452.67 140C452.67 184.25 512.54 243.87 560 243.87C599.06 243.87 625.71 187.03 625.71 140C625.71 106.85 596.05 83.51 560 83.51" stroke="rgba(254, 255, 254, 1)" stroke-width="2"></path><path d="M840 182.61C802.37 197.41 802.03 233.33 802.03 280C802.03 310.74 811.5 334.95 840 337.44C900.48 342.73 910.58 318.11 980 295.56C999 289.39 1016.84 294.37 1016.84 280C1016.84 251.59 1011.54 227.37 980 210C923.12 178.67 891.35 162.41 840 182.61" stroke="rgba(254, 255, 254, 1)" stroke-width="2"></path><path d="M280 404.15C270.45 410.61 263.2 410.37 263.2 420C263.2 437.39 263.1 447.75 280 458.18C341.5 496.13 361.24 527.44 420 516.76C466.24 508.35 490 469.14 490 420C490 367.69 465.45 317.3 420 313.87C360.45 309.38 348.85 357.55 280 404.15" stroke="rgba(254, 255, 254, 1)" stroke-width="2"></path><path d="M0 132.22C0.64 132.22 1.11 136.16 2.5 140C27.78 210.05 54.2 218.6 53.33 280C52.95 306.47 17.13 315.74 0 315.74C-9.54 315.74 0 297.87 0 280C0 210 0 210 0 140C0 136.11 -0.61 132.22 0 132.22" stroke="rgba(254, 255, 254, 1)" stroke-width="2"></path><path d="M420 58.71C386.77 54.85 369.44 17.76 369.44 0C369.44 -11.59 394.72 0 420 0C490 0 490 0 560 0C630 0 630 0 700 0C770 0 770 0 840 0C871.11 0 902.22 -6.12 902.22 0C902.22 6.61 867.01 6.04 840 25.45C769.59 76.04 734.04 70.22 707.37 140C685.4 197.49 716.29 213.41 742.71 280C771.84 353.41 830.64 374.95 818.46 420C809.29 453.91 748.91 408.95 700 437.91C630.69 478.95 643.98 505.96 582.02 560C573.98 567.01 571.01 560 560 560C505.56 560 457.76 588.42 451.11 560C441.38 518.42 491.8 491.25 527.23 420C546.24 381.77 535.64 374.87 560 341.03C586.03 304.87 602.69 317.11 628 280C671.26 216.59 712.89 199.75 697.14 140C678.89 70.8 636.98 44.69 560 22.11C498.41 4.04 482.05 65.91 420 58.71" stroke="rgba(254, 255, 254, 1)" stroke-width="2"></path><path d="M1064.85 140C1064.85 106.47 1095.97 75 1120 75C1140.72 75 1154.34 106.98 1154.34 140C1154.34 177.39 1141.04 215.83 1120 215.83C1096.3 215.83 1064.85 176.88 1064.85 140" stroke="rgba(254, 255, 254, 1)" stroke-width="2"></path><path d="M229.51 280C229.51 231.94 247.1 177.33 280 177.33C320.47 177.33 376.25 235.31 376.25 280C376.25 315.7 323.55 338.11 280 338.11C250.18 338.11 229.51 312.33 229.51 280" stroke="rgba(254, 255, 254, 1)" stroke-width="2"></path><path d="M1190 280C1190 256.87 1227.73 249.8 1260 249.8C1278.45 249.8 1291.43 261.42 1291.43 280C1291.43 317.05 1282.72 361.05 1260 361.05C1232.01 361.05 1190 312.49 1190 280" stroke="rgba(254, 255, 254, 1)" stroke-width="2"></path><path d="M1496.73 280C1496.73 255.09 1527.76 228.26 1540 228.26C1549.39 228.26 1540 254.13 1540 280C1540 301.63 1548.96 323.27 1540 323.27C1527.33 323.27 1496.73 302.6 1496.73 280" stroke="rgba(254, 255, 254, 1)" stroke-width="2"></path><path d="M110.11 420C110.11 394.46 121.8 374.14 140 374.14C163.35 374.14 193.2 390.82 193.2 420C193.2 477.08 161.33 546.67 140 546.67C119.79 546.67 110.11 480.72 110.11 420" stroke="rgba(254, 255, 254, 1)" stroke-width="2"></path><path d="M856.47 420C856.47 397.31 926.72 373.33 980 373.33C1001.61 373.33 1006.25 396.85 1006.25 420C1006.25 442.06 1000.99 463.75 980 463.75C926.1 463.75 856.47 442.52 856.47 420" stroke="rgba(254, 255, 254, 1)" stroke-width="2"></path><path d="M1297.33 420C1297.33 390.59 1352.83 368.67 1400 368.67C1429.83 368.67 1451.33 392.23 1451.33 420C1451.33 453.71 1431.81 491.63 1400 491.63C1354.81 491.63 1297.33 452.07 1297.33 420" stroke="rgba(254, 255, 254, 1)" stroke-width="2"></path></g><defs><mask id="SvgjsMask1003"><rect width="1440" height="560" fill="#ffffff"></rect></mask></defs></svg>