<svg xmlns="http://www.w3.org/2000/svg" viewBox="-0.5 -0.5 24 24" height="24" width="24"><title>interface-essential-clip-1</title><g><path d="M20.258 6.023h1.1v4.377h-1.1Z" fill="#000000" stroke-width="1"></path><path d="M19.165 10.4h1.093v2.192h-1.093Z" fill="#000000" stroke-width="1"></path><path d="M19.165 4.931h1.093v1.093h-1.093Z" fill="#000000" stroke-width="1"></path><path d="M18.073 12.592h1.093v1.1h-1.093Z" fill="#000000" stroke-width="1"></path><path d="M18.073 3.831h1.093v1.1h-1.093Z" fill="#000000" stroke-width="1"></path><path d="M16.973 13.692h1.1v1.093h-1.1Z" fill="#000000" stroke-width="1"></path><path d="M16.973 7.116h1.1v3.285h-1.1Z" fill="#000000" stroke-width="1"></path><path d="M13.689 2.738h4.384v1.093h-4.384Z" fill="#000000" stroke-width="1"></path><path d="M15.881 14.785h1.093v1.093h-1.093Z" fill="#000000" stroke-width="1"></path><path d="M15.881 10.4h1.093V11.5h-1.093Z" fill="#000000" stroke-width="1"></path><path d="M13.689 6.023h3.285V7.116h-3.285Z" fill="#000000" stroke-width="1"></path><path d="M14.781 15.877h1.1v1.1h-1.1Z" fill="#000000" stroke-width="1"></path><path d="M14.781 11.5h1.1v1.093h-1.1Z" fill="#000000" stroke-width="1"></path><path d="M13.689 16.977h1.093v1.093h-1.093Z" fill="#000000" stroke-width="1"></path><path d="M13.689 12.592h1.093v1.1h-1.093Z" fill="#000000" stroke-width="1"></path><path d="M12.596 18.069h1.093v1.1h-1.093Z" fill="#000000" stroke-width="1"></path><path d="M12.596 13.692h1.093v1.093h-1.093Z" fill="#000000" stroke-width="1"></path><path d="M12.596 7.116h1.093v1.1h-1.093Z" fill="#000000" stroke-width="1"></path><path d="M11.496 14.785h1.1v1.093h-1.1Z" fill="#000000" stroke-width="1"></path><path d="M11.496 8.215h1.1v1.093h-1.1Z" fill="#000000" stroke-width="1"></path><path d="M11.496 3.831h2.192v1.1h-2.192Z" fill="#000000" stroke-width="1"></path><path d="M10.404 15.877h1.093v1.1h-1.093Z" fill="#000000" stroke-width="1"></path><path d="M10.404 9.308h1.093v1.093h-1.093Z" fill="#000000" stroke-width="1"></path><path d="M10.404 4.931h1.093v1.093h-1.093Z" fill="#000000" stroke-width="1"></path><path d="M9.304 16.977h1.1v1.093h-1.1Z" fill="#000000" stroke-width="1"></path><path d="M9.304 10.4h1.1V11.5h-1.1Z" fill="#000000" stroke-width="1"></path><path d="M9.304 6.023h1.1V7.116h-1.1Z" fill="#000000" stroke-width="1"></path><path d="M8.212 18.069h1.093v1.1h-1.093Z" fill="#000000" stroke-width="1"></path><path d="M8.212 11.5h1.093v1.093h-1.093Z" fill="#000000" stroke-width="1"></path><path d="M8.212 7.116h1.093v1.1h-1.093Z" fill="#000000" stroke-width="1"></path><path d="M7.119 12.592h1.093v1.1h-1.093Z" fill="#000000" stroke-width="1"></path><path d="M7.119 8.215h1.093v1.093h-1.093Z" fill="#000000" stroke-width="1"></path><path d="M6.02 9.308h1.1v1.093h-1.1Z" fill="#000000" stroke-width="1"></path><path d="M4.927 10.4h1.093V11.5h-1.093Z" fill="#000000" stroke-width="1"></path><path d="M3.835 19.169h4.377v1.093h-4.377Z" fill="#000000" stroke-width="1"></path><path d="M3.835 11.5h1.093v1.093h-1.093Z" fill="#000000" stroke-width="1"></path><path d="M2.735 18.069h1.1v1.1h-1.1Z" fill="#000000" stroke-width="1"></path><path d="M2.735 12.592h1.1v1.1h-1.1Z" fill="#000000" stroke-width="1"></path><path d="M1.642 13.692h1.093v4.377h-1.093Z" fill="#000000" stroke-width="1"></path></g></svg>